<svg width="1185" height="642" viewBox="0 0 1185 642" fill="none" xmlns="http://www.w3.org/2000/svg">
<path d="M88.288 384.548C68.8187 384.548 54.184 379.975 44.384 370.828C34.7147 361.551 29.88 346.72 29.88 326.336C29.88 306.344 35.2373 291.775 45.952 282.628C56.6667 273.481 70.844 268.908 88.484 268.908C125.593 268.908 144.148 287.397 144.148 324.376C144.148 343.061 139.575 357.761 130.428 368.476C121.412 379.191 107.365 384.548 88.288 384.548ZM87.504 361.42C91.1627 361.42 94.2333 360.832 96.716 359.656C99.1987 358.349 101.159 356.128 102.596 352.992C105.34 347.635 106.712 338.88 106.712 326.728C106.712 314.837 105.34 306.213 102.596 300.856C99.852 295.368 94.8213 292.493 87.504 292.232C84.76 292.232 81.8853 292.559 78.88 293.212C76.0053 293.735 74.176 294.519 73.392 295.564C71.824 297.393 70.5827 301.313 69.668 307.324C68.884 313.204 68.492 319.672 68.492 326.728C68.492 337.704 69.5373 345.74 71.628 350.836C73.0653 354.625 75.0907 357.369 77.704 359.068C80.3173 360.636 83.584 361.42 87.504 361.42ZM219.917 289.88C229.325 289.88 236.773 293.016 242.261 299.288C247.88 305.429 250.689 316.209 250.689 331.628C250.689 343.127 249.579 352.535 247.357 359.852C245.136 367.039 242.588 371.808 239.713 374.16C236.839 376.512 231.808 378.407 224.621 379.844C217.565 381.281 210.248 382 202.669 382C200.448 382 196.724 381.869 191.497 381.608V409.44L157.981 410.812V291.84H185.421L188.753 305.756C192.151 300.921 196.463 297.067 201.689 294.192C207.047 291.317 213.123 289.88 219.917 289.88ZM212.077 358.088C213.515 357.043 214.56 354.103 215.213 349.268C215.867 344.303 216.193 339.599 216.193 335.156C216.193 327.839 215.279 322.416 213.449 318.888C211.62 315.36 207.961 313.596 202.473 313.596C198.553 313.596 194.895 313.988 191.497 314.772V358.284L196.985 358.872C198.684 359.003 201.101 359.068 204.237 359.068C208.68 359.068 211.293 358.741 212.077 358.088ZM318.513 358.48C321.78 358.48 327.856 358.153 336.741 357.5C337.917 357.5 340.073 357.369 343.209 357.108L346.149 377.296C336.088 382 323.021 384.352 306.949 384.352C291.922 384.352 280.358 380.563 272.257 372.984C264.286 365.405 260.301 353.972 260.301 338.684C260.301 330.844 261.281 323.265 263.241 315.948C265.332 308.631 267.684 303.535 270.297 300.66C273.041 297.785 278.137 295.303 285.585 293.212C293.033 291.121 300.416 290.076 307.733 290.076C319.493 290.076 328.313 292.167 334.193 296.348C340.073 300.529 343.928 306.344 345.757 313.792C347.586 321.109 348.501 330.975 348.501 343.388C339.616 343.911 330.926 344.172 322.433 344.172H294.601C294.601 348.353 295.45 351.489 297.149 353.58C298.978 355.671 301.526 357.043 304.793 357.696C308.06 358.219 312.633 358.48 318.513 358.48ZM296.561 313.4C295.777 313.792 295.189 315.491 294.797 318.496C294.405 321.501 294.144 324.899 294.013 328.688H304.205C310.346 328.688 314.789 328.623 317.533 328.492C317.533 322.22 316.618 317.777 314.789 315.164C313.09 312.551 310.085 311.244 305.773 311.244C302.245 311.244 299.174 311.963 296.561 313.4ZM447.518 297.524C448.694 298.961 449.543 302.555 450.066 308.304C450.719 314.053 451.046 322.808 451.046 334.568V382H417.53V334.96V326.924C417.53 322.743 417.203 320.129 416.55 319.084C415.504 317.777 413.087 317.124 409.298 317.124C407.468 317.124 406.096 317.189 405.182 317.32C401.523 317.451 397.734 318.3 393.814 319.868V382H360.298V291.84H387.542L391.266 306.932C400.674 295.564 411.911 289.88 424.978 289.88C429.682 289.88 434.059 290.533 438.11 291.84C442.291 293.147 445.427 295.041 447.518 297.524ZM465.156 317.516H523.956V345.544H465.156V317.516ZM642.176 382H605.132L598.468 353.776C598.207 352.731 597.75 350.967 597.096 348.484C596.574 345.871 595.92 343.976 595.136 342.8C594.352 341.493 593.242 340.644 591.804 340.252C588.146 340.383 582.788 340.448 575.732 340.448V382H540.452V271.26C556.263 270.084 571.028 269.496 584.748 269.496C597.162 269.496 607.223 270.541 614.932 272.632C622.642 274.592 628.391 278.055 632.18 283.02C636.1 287.855 638.06 294.519 638.06 303.012C638.06 310.983 636.231 317.255 632.572 321.828C628.914 326.271 623.034 328.949 614.932 329.864V331.04C619.506 331.432 623.295 332.935 626.3 335.548C629.436 338.031 631.527 341.232 632.572 345.152L642.176 382ZM575.732 318.3C576.908 318.431 579.195 318.496 582.592 318.496C592.654 318.496 598.534 317.647 600.232 315.948C601.8 314.38 602.584 310.721 602.584 304.972C602.584 299.615 601.147 295.956 598.272 293.996C595.528 292.036 590.955 291.056 584.552 291.056C583.115 291.056 580.175 291.187 575.732 291.448V318.3ZM741.76 378.276C736.925 380.367 731.306 381.869 724.904 382.784C718.501 383.699 712.556 384.156 707.068 384.156C689.297 384.156 675.381 379.517 665.32 370.24C655.258 360.963 650.228 346.72 650.228 327.512C650.228 307.912 655.52 293.277 666.104 283.608C676.688 273.808 691.584 268.908 710.792 268.908C719.938 268.908 729.477 270.149 739.408 272.632C739.408 275.245 739.146 279.165 738.624 284.392C738.101 289.488 737.578 293.081 737.056 295.172H724.708C715.692 295.172 708.57 295.368 703.344 295.76C698.248 296.021 695.177 296.609 694.132 297.524C692.172 299.353 690.669 303.077 689.624 308.696C688.578 314.184 688.056 319.476 688.056 324.572C688.056 333.457 689.166 340.317 691.388 345.152C693.609 349.856 696.418 352.992 699.816 354.56C703.082 356.128 708.505 356.912 716.084 356.912C722.094 356.912 729.934 356.389 739.604 355.344L741.76 378.276ZM796.384 384.548C780.704 384.548 768.944 380.889 761.104 373.572C753.395 366.124 749.54 354.429 749.54 338.488C749.54 329.733 750.324 322.089 751.892 315.556C753.591 308.892 755.616 304.253 757.968 301.64C760.973 298.243 766.461 295.433 774.432 293.212C782.533 290.991 790.112 289.88 797.168 289.88C814.024 289.88 826.045 293.473 833.232 300.66C840.419 307.847 844.012 319.345 844.012 335.156C844.012 352.143 840.157 364.621 832.448 372.592C824.739 380.563 812.717 384.548 796.384 384.548ZM796.972 361.616C802.068 361.616 805.4 359.852 806.968 356.324C808.536 352.665 809.32 346.263 809.32 337.116C809.32 330.713 808.993 325.813 808.34 322.416C807.687 318.888 806.445 316.34 804.616 314.772C802.917 313.073 800.239 312.224 796.58 312.224C791.353 312.224 788.348 312.681 787.564 313.596C786.519 314.511 785.669 317.385 785.016 322.22C784.363 327.055 784.036 332.085 784.036 337.312C784.036 346.197 784.885 352.469 786.584 356.128C788.413 359.787 791.876 361.616 796.972 361.616ZM946.574 263.028V382H918.938L916.194 366.908C913.58 372.004 909.726 376.055 904.63 379.06C899.534 382.065 893.784 383.568 887.382 383.568C877.19 383.568 869.023 379.909 862.882 372.592C856.871 365.275 853.866 354.299 853.866 339.664C853.866 328.557 855.172 319.411 857.786 312.224C860.399 305.037 863.47 299.876 866.998 296.74C869.219 294.78 873.727 293.147 880.522 291.84C887.447 290.533 893.588 289.88 898.946 289.88C903.65 289.88 908.484 290.337 913.45 291.252C913.058 284.98 912.862 281.517 912.862 280.864V264.4L946.574 263.028ZM902.082 357.304C905.61 357.304 909.268 356.716 913.058 355.54V313.008C909.268 312.485 905.087 312.224 900.514 312.224C896.594 312.224 894.111 312.551 893.066 313.204C891.628 314.249 890.452 317.255 889.538 322.22C888.754 327.055 888.362 332.151 888.362 337.508C888.362 345.479 889.538 350.771 891.89 353.384C894.372 355.997 897.77 357.304 902.082 357.304ZM1017.34 358.48C1020.6 358.48 1026.68 358.153 1035.57 357.5C1036.74 357.5 1038.9 357.369 1042.03 357.108L1044.97 377.296C1034.91 382 1021.85 384.352 1005.77 384.352C990.747 384.352 979.183 380.563 971.081 372.984C963.111 365.405 959.125 353.972 959.125 338.684C959.125 330.844 960.105 323.265 962.065 315.948C964.156 308.631 966.508 303.535 969.121 300.66C971.865 297.785 976.961 295.303 984.409 293.212C991.857 291.121 999.24 290.076 1006.56 290.076C1018.32 290.076 1027.14 292.167 1033.02 296.348C1038.9 300.529 1042.75 306.344 1044.58 313.792C1046.41 321.109 1047.33 330.975 1047.33 343.388C1038.44 343.911 1029.75 344.172 1021.26 344.172H993.425C993.425 348.353 994.275 351.489 995.973 353.58C997.803 355.671 1000.35 357.043 1003.62 357.696C1006.88 358.219 1011.46 358.48 1017.34 358.48ZM995.385 313.4C994.601 313.792 994.013 315.491 993.621 318.496C993.229 321.501 992.968 324.899 992.837 328.688H1003.03C1009.17 328.688 1013.61 328.623 1016.36 328.492C1016.36 322.22 1015.44 317.777 1013.61 315.164C1011.91 312.551 1008.91 311.244 1004.6 311.244C1001.07 311.244 997.999 311.963 995.385 313.4Z" fill="black"/>
</svg>
