<svg width="1185" height="642" viewBox="0 0 1185 642" fill="none" xmlns="http://www.w3.org/2000/svg">
<path d="M145.548 384.548C129.868 384.548 118.108 380.889 110.268 373.572C102.559 366.124 98.704 354.429 98.704 338.488C98.704 329.733 99.488 322.089 101.056 315.556C102.755 308.892 104.78 304.253 107.132 301.64C110.137 298.243 115.625 295.433 123.596 293.212C131.697 290.991 139.276 289.88 146.332 289.88C163.188 289.88 175.209 293.473 182.396 300.66C189.583 307.847 193.176 319.345 193.176 335.156C193.176 352.143 189.321 364.621 181.612 372.592C173.903 380.563 161.881 384.548 145.548 384.548ZM146.136 361.616C151.232 361.616 154.564 359.852 156.132 356.324C157.7 352.665 158.484 346.263 158.484 337.116C158.484 330.713 158.157 325.813 157.504 322.416C156.851 318.888 155.609 316.34 153.78 314.772C152.081 313.073 149.403 312.224 145.744 312.224C140.517 312.224 137.512 312.681 136.728 313.596C135.683 314.511 134.833 317.385 134.18 322.22C133.527 327.055 133.2 332.085 133.2 337.312C133.2 346.197 134.049 352.469 135.748 356.128C137.577 359.787 141.04 361.616 146.136 361.616ZM267.906 289.88C277.314 289.88 284.762 293.016 290.25 299.288C295.868 305.429 298.678 316.209 298.678 331.628C298.678 343.127 297.567 352.535 295.346 359.852C293.124 367.039 290.576 371.808 287.702 374.16C284.827 376.512 279.796 378.407 272.61 379.844C265.554 381.281 258.236 382 250.658 382C248.436 382 244.712 381.869 239.486 381.608V409.44L205.97 410.812V291.84H233.41L236.742 305.756C240.139 300.921 244.451 297.067 249.678 294.192C255.035 291.317 261.111 289.88 267.906 289.88ZM260.066 358.088C261.503 357.043 262.548 354.103 263.202 349.268C263.855 344.303 264.182 339.599 264.182 335.156C264.182 327.839 263.267 322.416 261.438 318.888C259.608 315.36 255.95 313.596 250.462 313.596C246.542 313.596 242.883 313.988 239.486 314.772V358.284L244.974 358.872C246.672 359.003 249.09 359.068 252.226 359.068C256.668 359.068 259.282 358.741 260.066 358.088ZM366.501 358.48C369.768 358.48 375.844 358.153 384.729 357.5C385.905 357.5 388.061 357.369 391.197 357.108L394.137 377.296C384.076 382 371.009 384.352 354.937 384.352C339.911 384.352 328.347 380.563 320.245 372.984C312.275 365.405 308.289 353.972 308.289 338.684C308.289 330.844 309.269 323.265 311.229 315.948C313.32 308.631 315.672 303.535 318.285 300.66C321.029 297.785 326.125 295.303 333.573 293.212C341.021 291.121 348.404 290.076 355.721 290.076C367.481 290.076 376.301 292.167 382.181 296.348C388.061 300.529 391.916 306.344 393.745 313.792C395.575 321.109 396.489 330.975 396.489 343.388C387.604 343.911 378.915 344.172 370.421 344.172H342.589C342.589 348.353 343.439 351.489 345.137 353.58C346.967 355.671 349.515 357.043 352.781 357.696C356.048 358.219 360.621 358.48 366.501 358.48ZM344.549 313.4C343.765 313.792 343.177 315.491 342.785 318.496C342.393 321.501 342.132 324.899 342.001 328.688H352.193C358.335 328.688 362.777 328.623 365.521 328.492C365.521 322.22 364.607 317.777 362.777 315.164C361.079 312.551 358.073 311.244 353.761 311.244C350.233 311.244 347.163 311.963 344.549 313.4ZM495.506 297.524C496.682 298.961 497.531 302.555 498.054 308.304C498.707 314.053 499.034 322.808 499.034 334.568V382H465.518V334.96V326.924C465.518 322.743 465.191 320.129 464.538 319.084C463.493 317.777 461.075 317.124 457.286 317.124C455.457 317.124 454.085 317.189 453.17 317.32C449.511 317.451 445.722 318.3 441.802 319.868V382H408.286V291.84H435.53L439.254 306.932C448.662 295.564 459.899 289.88 472.966 289.88C477.67 289.88 482.047 290.533 486.098 291.84C490.279 293.147 493.415 295.041 495.506 297.524ZM513.144 317.516H571.944V345.544H513.144V317.516ZM642.537 289.88C644.235 289.88 645.999 290.076 647.829 290.468C649.789 290.86 651.226 291.317 652.141 291.84C652.141 294.715 651.814 299.484 651.161 306.148C650.507 312.681 649.919 317.32 649.397 320.064C648.09 319.933 645.673 319.868 642.145 319.868C633.913 319.868 626.595 320.325 620.193 321.24V382H586.677V291.84H614.705L618.625 306.344H618.821C622.61 301.379 626.661 297.393 630.973 294.388C635.285 291.383 639.139 289.88 642.537 289.88ZM736.794 379.256C726.21 382.784 714.385 384.548 701.318 384.548C686.684 384.548 675.708 380.889 668.39 373.572C661.204 366.124 657.61 354.56 657.61 338.88C657.61 331.171 658.656 323.592 660.746 316.144C662.837 308.565 665.058 303.469 667.41 300.856C670.154 297.851 675.512 295.303 683.482 293.212C691.584 291.121 699.946 290.076 708.57 290.076C717.586 290.076 726.668 290.86 735.814 292.428C735.553 295.695 735.096 299.549 734.442 303.992C733.92 308.304 733.332 312.159 732.678 315.556C724.577 315.033 716.933 314.772 709.746 314.772C702.69 314.772 698.182 315.164 696.222 315.948C695.177 316.34 694.197 319.019 693.282 323.984C692.498 328.949 692.106 333.588 692.106 337.9C692.106 343.649 692.89 348.092 694.458 351.228C696.157 354.233 698.77 356.324 702.298 357.5C705.826 358.676 710.596 359.264 716.606 359.264C719.22 359.264 724.969 359.003 733.854 358.48L736.794 379.256ZM791.544 384.548C775.864 384.548 764.104 380.889 756.264 373.572C748.555 366.124 744.7 354.429 744.7 338.488C744.7 329.733 745.484 322.089 747.052 315.556C748.751 308.892 750.776 304.253 753.128 301.64C756.133 298.243 761.621 295.433 769.592 293.212C777.693 290.991 785.272 289.88 792.328 289.88C809.184 289.88 821.205 293.473 828.392 300.66C835.579 307.847 839.172 319.345 839.172 335.156C839.172 352.143 835.317 364.621 827.608 372.592C819.899 380.563 807.877 384.548 791.544 384.548ZM792.132 361.616C797.228 361.616 800.56 359.852 802.128 356.324C803.696 352.665 804.48 346.263 804.48 337.116C804.48 330.713 804.153 325.813 803.5 322.416C802.847 318.888 801.605 316.34 799.776 314.772C798.077 313.073 795.399 312.224 791.74 312.224C786.513 312.224 783.508 312.681 782.724 313.596C781.679 314.511 780.829 317.385 780.176 322.22C779.523 327.055 779.196 332.085 779.196 337.312C779.196 346.197 780.045 352.469 781.744 356.128C783.573 359.787 787.036 361.616 792.132 361.616ZM941.734 263.028V382H914.098L911.354 366.908C908.74 372.004 904.886 376.055 899.79 379.06C894.694 382.065 888.944 383.568 882.542 383.568C872.35 383.568 864.183 379.909 858.042 372.592C852.031 365.275 849.026 354.299 849.026 339.664C849.026 328.557 850.332 319.411 852.946 312.224C855.559 305.037 858.63 299.876 862.158 296.74C864.379 294.78 868.887 293.147 875.682 291.84C882.607 290.533 888.748 289.88 894.106 289.88C898.81 289.88 903.644 290.337 908.61 291.252C908.218 284.98 908.022 281.517 908.022 280.864V264.4L941.734 263.028ZM897.242 357.304C900.77 357.304 904.428 356.716 908.218 355.54V313.008C904.428 312.485 900.247 312.224 895.674 312.224C891.754 312.224 889.271 312.551 888.226 313.204C886.788 314.249 885.612 317.255 884.698 322.22C883.914 327.055 883.522 332.151 883.522 337.508C883.522 345.479 884.698 350.771 887.05 353.384C889.532 355.997 892.93 357.304 897.242 357.304ZM1012.5 358.48C1015.76 358.48 1021.84 358.153 1030.73 357.5C1031.9 357.5 1034.06 357.369 1037.19 357.108L1040.13 377.296C1030.07 382 1017.01 384.352 1000.93 384.352C985.907 384.352 974.343 380.563 966.241 372.984C958.271 365.405 954.285 353.972 954.285 338.684C954.285 330.844 955.265 323.265 957.225 315.948C959.316 308.631 961.668 303.535 964.281 300.66C967.025 297.785 972.121 295.303 979.569 293.212C987.017 291.121 994.4 290.076 1001.72 290.076C1013.48 290.076 1022.3 292.167 1028.18 296.348C1034.06 300.529 1037.91 306.344 1039.74 313.792C1041.57 321.109 1042.49 330.975 1042.49 343.388C1033.6 343.911 1024.91 344.172 1016.42 344.172H988.585C988.585 348.353 989.435 351.489 991.133 353.58C992.963 355.671 995.511 357.043 998.777 357.696C1002.04 358.219 1006.62 358.48 1012.5 358.48ZM990.545 313.4C989.761 313.792 989.173 315.491 988.781 318.496C988.389 321.501 988.128 324.899 987.997 328.688H998.189C1004.33 328.688 1008.77 328.623 1011.52 328.492C1011.52 322.22 1010.6 317.777 1008.77 315.164C1007.07 312.551 1004.07 311.244 999.757 311.244C996.229 311.244 993.159 311.963 990.545 313.4Z" fill="black"/>
</svg>
